<?xml version="1.0" encoding="UTF-8"?>
<svg xmlns="http://www.w3.org/2000/svg" xmlns:xlink="http://www.w3.org/1999/xlink" width="581.094" height="270.034" viewBox="0 0 581.094 270.034">
<defs>
<clipPath id="clip-0">
<path clip-rule="nonzero" d="M 0 170 L 84 170 L 84 270.035156 L 0 270.035156 Z M 0 170 "/>
</clipPath>
<clipPath id="clip-1">
<path clip-rule="nonzero" d="M 72 170 L 226 170 L 226 270.035156 L 72 270.035156 Z M 72 170 "/>
</clipPath>
<clipPath id="clip-2">
<path clip-rule="nonzero" d="M 214 170 L 368 170 L 368 270.035156 L 214 270.035156 Z M 214 170 "/>
</clipPath>
<clipPath id="clip-3">
<path clip-rule="nonzero" d="M 355 170 L 509 170 L 509 270.035156 L 355 270.035156 Z M 355 170 "/>
</clipPath>
<clipPath id="clip-4">
<path clip-rule="nonzero" d="M 565 3 L 581.09375 3 L 581.09375 21 L 565 21 Z M 565 3 "/>
</clipPath>
<clipPath id="clip-5">
<path clip-rule="nonzero" d="M 497 0 L 581.09375 0 L 581.09375 100 L 497 100 Z M 497 0 "/>
</clipPath>
<clipPath id="clip-6">
<path clip-rule="nonzero" d="M 565 249 L 581.09375 249 L 581.09375 267 L 565 267 Z M 565 249 "/>
</clipPath>
<clipPath id="clip-7">
<path clip-rule="nonzero" d="M 497 170 L 581.09375 170 L 581.09375 270.035156 L 497 270.035156 Z M 497 170 "/>
</clipPath>
<clipPath id="clip-8">
<path clip-rule="nonzero" d="M 568 47 L 581.09375 47 L 581.09375 223 L 568 223 Z M 568 47 "/>
</clipPath>
</defs>
<path fill="none" stroke-width="0.3985" stroke-linecap="butt" stroke-linejoin="miter" stroke="rgb(77.915955%, 74.803162%, 19.534302%)" stroke-opacity="1" stroke-dasharray="0.3985 1.99255" stroke-miterlimit="10" d="M -0.008875 163.653531 L -70.860438 204.575406 L -141.739344 163.653531 L -141.723719 81.833219 L -70.872156 40.911344 L 0.00675 81.833219 Z M -0.008875 163.653531 " transform="matrix(1, 0, 0, -1, 7.087, 257.759)"/>
<path fill-rule="nonzero" fill="rgb(75%, 75%, 75%)" fill-opacity="1" stroke-width="0.3985" stroke-linecap="butt" stroke-linejoin="miter" stroke="rgb(75%, 75%, 75%)" stroke-opacity="1" stroke-miterlimit="10" d="M 2.834875 245.485563 C 2.834875 247.051969 1.565344 248.3215 -0.0010625 248.3215 C -1.567469 248.3215 -2.837 247.051969 -2.837 245.485563 C -2.837 243.923063 -1.567469 242.653531 -0.0010625 242.653531 C 1.565344 242.653531 2.834875 243.923063 2.834875 245.485563 Z M 2.834875 245.485563 " transform="matrix(1, 0, 0, -1, 7.087, 257.759)"/>
<path fill="none" stroke-width="0.3985" stroke-linecap="butt" stroke-linejoin="miter" stroke="rgb(77.915955%, 74.803162%, 19.534302%)" stroke-opacity="1" stroke-dasharray="0.3985 1.99255" stroke-miterlimit="10" d="M 70.858312 286.395719 L 0.00675 327.317594 L -70.872156 286.395719 L -70.856531 204.579313 L -0.008875 163.653531 L 70.873937 204.579313 Z M 70.858312 286.395719 " transform="matrix(1, 0, 0, -1, 7.087, 257.759)"/>
<path fill-rule="nonzero" fill="rgb(75%, 75%, 75%)" fill-opacity="1" stroke-width="0.3985" stroke-linecap="butt" stroke-linejoin="miter" stroke="rgb(75%, 75%, 75%)" stroke-opacity="1" stroke-miterlimit="10" d="M 2.834875 0.0011875 C 2.834875 1.567594 1.565344 2.837125 -0.0010625 2.837125 C -1.567469 2.837125 -2.837 1.567594 -2.837 0.0011875 C -2.837 -1.565219 -1.567469 -2.83475 -0.0010625 -2.83475 C 1.565344 -2.83475 2.834875 -1.565219 2.834875 0.0011875 Z M 2.834875 0.0011875 " transform="matrix(1, 0, 0, -1, 7.087, 257.759)"/>
<g clip-path="url(#clip-0)">
<path fill="none" stroke-width="0.3985" stroke-linecap="butt" stroke-linejoin="miter" stroke="rgb(77.915955%, 74.803162%, 19.534302%)" stroke-opacity="1" stroke-dasharray="0.3985 1.99255" stroke-miterlimit="10" d="M 70.858312 40.911344 L 0.00675 81.833219 L -70.872156 40.911344 L -70.856531 -40.908969 L -0.008875 -81.830844 L 70.873937 -40.908969 Z M 70.858312 40.911344 " transform="matrix(1, 0, 0, -1, 7.087, 257.759)"/>
</g>
<path fill-rule="nonzero" fill="rgb(75%, 75%, 75%)" fill-opacity="1" stroke-width="0.3985" stroke-linecap="butt" stroke-linejoin="miter" stroke="rgb(75%, 75%, 75%)" stroke-opacity="1" stroke-miterlimit="10" d="M 73.702062 122.743375 C 73.702062 124.309781 72.432531 125.579313 70.866125 125.579313 C 69.299719 125.579313 68.030187 124.309781 68.030187 122.743375 C 68.030187 121.176969 69.299719 119.907438 70.866125 119.907438 C 72.432531 119.907438 73.702062 121.176969 73.702062 122.743375 Z M 73.702062 122.743375 " transform="matrix(1, 0, 0, -1, 7.087, 257.759)"/>
<path fill="none" stroke-width="0.3985" stroke-linecap="butt" stroke-linejoin="miter" stroke="rgb(77.915955%, 74.803162%, 19.534302%)" stroke-opacity="1" stroke-dasharray="0.3985 1.99255" stroke-miterlimit="10" d="M 141.721594 163.653531 L 70.873937 204.575406 L -0.00496875 163.653531 L 0.0106563 81.833219 L 70.858312 40.911344 L 141.737219 81.833219 Z M 141.721594 163.653531 " transform="matrix(1, 0, 0, -1, 7.087, 257.759)"/>
<path fill-rule="nonzero" fill="rgb(75%, 75%, 75%)" fill-opacity="1" stroke-width="0.3985" stroke-linecap="butt" stroke-linejoin="miter" stroke="rgb(75%, 75%, 75%)" stroke-opacity="1" stroke-miterlimit="10" d="M 144.565344 245.485563 C 144.565344 247.051969 143.295813 248.3215 141.733313 248.3215 C 140.166906 248.3215 138.897375 247.051969 138.897375 245.485563 C 138.897375 243.923063 140.166906 242.653531 141.733313 242.653531 C 143.295813 242.653531 144.565344 243.923063 144.565344 245.485563 Z M 144.565344 245.485563 " transform="matrix(1, 0, 0, -1, 7.087, 257.759)"/>
<path fill="none" stroke-width="0.3985" stroke-linecap="butt" stroke-linejoin="miter" stroke="rgb(77.915955%, 74.803162%, 19.534302%)" stroke-opacity="1" stroke-dasharray="0.3985 1.99255" stroke-miterlimit="10" d="M 212.588781 286.395719 L 141.737219 327.317594 L 70.858312 286.395719 L 70.873937 204.579313 L 141.7255 163.653531 L 212.604406 204.579313 Z M 212.588781 286.395719 " transform="matrix(1, 0, 0, -1, 7.087, 257.759)"/>
<path fill-rule="nonzero" fill="rgb(75%, 75%, 75%)" fill-opacity="1" stroke-width="0.3985" stroke-linecap="butt" stroke-linejoin="miter" stroke="rgb(75%, 75%, 75%)" stroke-opacity="1" stroke-miterlimit="10" d="M 144.565344 0.0011875 C 144.565344 1.567594 143.295813 2.837125 141.733313 2.837125 C 140.166906 2.837125 138.897375 1.567594 138.897375 0.0011875 C 138.897375 -1.565219 140.166906 -2.83475 141.733313 -2.83475 C 143.295813 -2.83475 144.565344 -1.565219 144.565344 0.0011875 Z M 144.565344 0.0011875 " transform="matrix(1, 0, 0, -1, 7.087, 257.759)"/>
<g clip-path="url(#clip-1)">
<path fill="none" stroke-width="0.3985" stroke-linecap="butt" stroke-linejoin="miter" stroke="rgb(77.915955%, 74.803162%, 19.534302%)" stroke-opacity="1" stroke-dasharray="0.3985 1.99255" stroke-miterlimit="10" d="M 212.588781 40.911344 L 141.741125 81.833219 L 70.858312 40.911344 L 70.873937 -40.908969 L 141.7255 -81.830844 L 212.604406 -40.908969 Z M 212.588781 40.911344 " transform="matrix(1, 0, 0, -1, 7.087, 257.759)"/>
</g>
<path fill-rule="nonzero" fill="rgb(75%, 75%, 75%)" fill-opacity="1" stroke-width="0.3985" stroke-linecap="butt" stroke-linejoin="miter" stroke="rgb(75%, 75%, 75%)" stroke-opacity="1" stroke-miterlimit="10" d="M 215.432531 122.743375 C 215.432531 124.309781 214.163 125.579313 212.596594 125.579313 C 211.030188 125.579313 209.760656 124.309781 209.760656 122.743375 C 209.760656 121.176969 211.030188 119.907438 212.596594 119.907438 C 214.163 119.907438 215.432531 121.176969 215.432531 122.743375 Z M 215.432531 122.743375 " transform="matrix(1, 0, 0, -1, 7.087, 257.759)"/>
<path fill="none" stroke-width="0.3985" stroke-linecap="butt" stroke-linejoin="miter" stroke="rgb(77.915955%, 74.803162%, 19.534302%)" stroke-opacity="1" stroke-dasharray="0.3985 1.99255" stroke-miterlimit="10" d="M 283.455969 163.653531 L 212.604406 204.575406 L 141.7255 163.653531 L 141.741125 81.833219 L 212.588781 40.911344 L 283.471594 81.833219 Z M 283.455969 163.653531 " transform="matrix(1, 0, 0, -1, 7.087, 257.759)"/>
<path fill-rule="nonzero" fill="rgb(75%, 75%, 75%)" fill-opacity="1" stroke-width="0.3985" stroke-linecap="butt" stroke-linejoin="miter" stroke="rgb(75%, 75%, 75%)" stroke-opacity="1" stroke-miterlimit="10" d="M 286.299719 245.485563 C 286.299719 247.051969 285.030188 248.3215 283.463781 248.3215 C 281.897375 248.3215 280.627844 247.051969 280.627844 245.485563 C 280.627844 243.923063 281.897375 242.653531 283.463781 242.653531 C 285.030188 242.653531 286.299719 243.923063 286.299719 245.485563 Z M 286.299719 245.485563 " transform="matrix(1, 0, 0, -1, 7.087, 257.759)"/>
<path fill="none" stroke-width="0.3985" stroke-linecap="butt" stroke-linejoin="miter" stroke="rgb(77.915955%, 74.803162%, 19.534302%)" stroke-opacity="1" stroke-dasharray="0.3985 1.99255" stroke-miterlimit="10" d="M 354.31925 286.395719 L 283.471594 327.317594 L 212.592688 286.395719 L 212.608313 204.579313 L 283.455969 163.653531 L 354.334875 204.579313 Z M 354.31925 286.395719 " transform="matrix(1, 0, 0, -1, 7.087, 257.759)"/>
<path fill-rule="nonzero" fill="rgb(75%, 75%, 75%)" fill-opacity="1" stroke-width="0.3985" stroke-linecap="butt" stroke-linejoin="miter" stroke="rgb(75%, 75%, 75%)" stroke-opacity="1" stroke-miterlimit="10" d="M 286.299719 0.0011875 C 286.299719 1.567594 285.030188 2.837125 283.463781 2.837125 C 281.897375 2.837125 280.627844 1.567594 280.627844 0.0011875 C 280.627844 -1.565219 281.897375 -2.83475 283.463781 -2.83475 C 285.030188 -2.83475 286.299719 -1.565219 286.299719 0.0011875 Z M 286.299719 0.0011875 " transform="matrix(1, 0, 0, -1, 7.087, 257.759)"/>
<g clip-path="url(#clip-2)">
<path fill="none" stroke-width="0.3985" stroke-linecap="butt" stroke-linejoin="miter" stroke="rgb(77.915955%, 74.803162%, 19.534302%)" stroke-opacity="1" stroke-dasharray="0.3985 1.99255" stroke-miterlimit="10" d="M 354.31925 40.911344 L 283.471594 81.833219 L 212.592688 40.911344 L 212.608313 -40.908969 L 283.455969 -81.830844 L 354.334875 -40.908969 Z M 354.31925 40.911344 " transform="matrix(1, 0, 0, -1, 7.087, 257.759)"/>
</g>
<path fill-rule="nonzero" fill="rgb(75%, 75%, 75%)" fill-opacity="1" stroke-width="0.3985" stroke-linecap="butt" stroke-linejoin="miter" stroke="rgb(75%, 75%, 75%)" stroke-opacity="1" stroke-miterlimit="10" d="M 357.163 122.743375 C 357.163 124.309781 355.893469 125.579313 354.330969 125.579313 C 352.764563 125.579313 351.495031 124.309781 351.495031 122.743375 C 351.495031 121.176969 352.764563 119.907438 354.330969 119.907438 C 355.893469 119.907438 357.163 121.176969 357.163 122.743375 Z M 357.163 122.743375 " transform="matrix(1, 0, 0, -1, 7.087, 257.759)"/>
<path fill="none" stroke-width="0.3985" stroke-linecap="butt" stroke-linejoin="miter" stroke="rgb(77.915955%, 74.803162%, 19.534302%)" stroke-opacity="1" stroke-dasharray="0.3985 1.99255" stroke-miterlimit="10" d="M 425.186438 163.653531 L 354.338781 204.575406 L 283.455969 163.653531 L 283.471594 81.833219 L 354.323156 40.911344 L 425.202063 81.833219 Z M 425.186438 163.653531 " transform="matrix(1, 0, 0, -1, 7.087, 257.759)"/>
<path fill-rule="nonzero" fill="rgb(75%, 75%, 75%)" fill-opacity="1" stroke-width="0.3985" stroke-linecap="butt" stroke-linejoin="miter" stroke="rgb(75%, 75%, 75%)" stroke-opacity="1" stroke-miterlimit="10" d="M 428.030188 245.485563 C 428.030188 247.051969 426.760656 248.3215 425.19425 248.3215 C 423.627844 248.3215 422.358313 247.051969 422.358313 245.485563 C 422.358313 243.923063 423.627844 242.653531 425.19425 242.653531 C 426.760656 242.653531 428.030188 243.923063 428.030188 245.485563 Z M 428.030188 245.485563 " transform="matrix(1, 0, 0, -1, 7.087, 257.759)"/>
<path fill="none" stroke-width="0.3985" stroke-linecap="butt" stroke-linejoin="miter" stroke="rgb(77.915955%, 74.803162%, 19.534302%)" stroke-opacity="1" stroke-dasharray="0.3985 1.99255" stroke-miterlimit="10" d="M 496.053625 286.395719 L 425.202063 327.317594 L 354.323156 286.395719 L 354.338781 204.579313 L 425.186438 163.653531 L 496.06925 204.579313 Z M 496.053625 286.395719 " transform="matrix(1, 0, 0, -1, 7.087, 257.759)"/>
<path fill-rule="nonzero" fill="rgb(75%, 75%, 75%)" fill-opacity="1" stroke-width="0.3985" stroke-linecap="butt" stroke-linejoin="miter" stroke="rgb(75%, 75%, 75%)" stroke-opacity="1" stroke-miterlimit="10" d="M 428.030188 0.0011875 C 428.030188 1.567594 426.760656 2.837125 425.19425 2.837125 C 423.627844 2.837125 422.362219 1.567594 422.362219 0.0011875 C 422.362219 -1.565219 423.627844 -2.83475 425.19425 -2.83475 C 426.760656 -2.83475 428.030188 -1.565219 428.030188 0.0011875 Z M 428.030188 0.0011875 " transform="matrix(1, 0, 0, -1, 7.087, 257.759)"/>
<g clip-path="url(#clip-3)">
<path fill="none" stroke-width="0.3985" stroke-linecap="butt" stroke-linejoin="miter" stroke="rgb(77.915955%, 74.803162%, 19.534302%)" stroke-opacity="1" stroke-dasharray="0.3985 1.99255" stroke-miterlimit="10" d="M 496.053625 40.911344 L 425.202063 81.833219 L 354.323156 40.911344 L 354.338781 -40.908969 L 425.186438 -81.830844 L 496.06925 -40.908969 Z M 496.053625 40.911344 " transform="matrix(1, 0, 0, -1, 7.087, 257.759)"/>
</g>
<path fill-rule="nonzero" fill="rgb(75%, 75%, 75%)" fill-opacity="1" stroke-width="0.3985" stroke-linecap="butt" stroke-linejoin="miter" stroke="rgb(75%, 75%, 75%)" stroke-opacity="1" stroke-miterlimit="10" d="M 498.897375 122.743375 C 498.897375 124.309781 497.627844 125.579313 496.061438 125.579313 C 494.495031 125.579313 493.2255 124.309781 493.2255 122.743375 C 493.2255 121.176969 494.495031 119.907438 496.061438 119.907438 C 497.627844 119.907438 498.897375 121.176969 498.897375 122.743375 Z M 498.897375 122.743375 " transform="matrix(1, 0, 0, -1, 7.087, 257.759)"/>
<path fill="none" stroke-width="0.3985" stroke-linecap="butt" stroke-linejoin="miter" stroke="rgb(77.915955%, 74.803162%, 19.534302%)" stroke-opacity="1" stroke-dasharray="0.3985 1.99255" stroke-miterlimit="10" d="M 566.916906 163.653531 L 496.06925 204.575406 L 425.190344 163.653531 L 425.205969 81.833219 L 496.053625 40.911344 L 566.932531 81.833219 Z M 566.916906 163.653531 " transform="matrix(1, 0, 0, -1, 7.087, 257.759)"/>
<path fill-rule="nonzero" fill="rgb(75%, 75%, 75%)" fill-opacity="1" d="M 576.847656 12.273438 C 576.847656 10.707031 575.582031 9.4375 574.015625 9.4375 C 572.449219 9.4375 571.179688 10.707031 571.179688 12.273438 C 571.179688 13.835938 572.449219 15.105469 574.015625 15.105469 C 575.582031 15.105469 576.847656 13.835938 576.847656 12.273438 Z M 576.847656 12.273438 "/>
<g clip-path="url(#clip-4)">
<path fill="none" stroke-width="0.3985" stroke-linecap="butt" stroke-linejoin="miter" stroke="rgb(75%, 75%, 75%)" stroke-opacity="1" stroke-miterlimit="10" d="M 569.760656 245.485563 C 569.760656 247.051969 568.495031 248.3215 566.928625 248.3215 C 565.362219 248.3215 564.092688 247.051969 564.092688 245.485563 C 564.092688 243.923063 565.362219 242.653531 566.928625 242.653531 C 568.495031 242.653531 569.760656 243.923063 569.760656 245.485563 Z M 569.760656 245.485563 " transform="matrix(1, 0, 0, -1, 7.087, 257.759)"/>
</g>
<g clip-path="url(#clip-5)">
<path fill="none" stroke-width="0.3985" stroke-linecap="butt" stroke-linejoin="miter" stroke="rgb(77.915955%, 74.803162%, 19.534302%)" stroke-opacity="1" stroke-dasharray="0.3985 1.99255" stroke-miterlimit="10" d="M 637.784094 286.395719 L 566.936438 327.317594 L 496.053625 286.395719 L 496.06925 204.579313 L 566.920813 163.653531 L 637.799719 204.579313 Z M 637.784094 286.395719 " transform="matrix(1, 0, 0, -1, 7.087, 257.759)"/>
</g>
<path fill-rule="nonzero" fill="rgb(75%, 75%, 75%)" fill-opacity="1" d="M 576.851562 257.757812 C 576.851562 256.191406 575.582031 254.921875 574.015625 254.921875 C 572.449219 254.921875 571.179688 256.191406 571.179688 257.757812 C 571.179688 259.324219 572.449219 260.59375 574.015625 260.59375 C 575.582031 260.59375 576.851562 259.324219 576.851562 257.757812 Z M 576.851562 257.757812 "/>
<g clip-path="url(#clip-6)">
<path fill="none" stroke-width="0.3985" stroke-linecap="butt" stroke-linejoin="miter" stroke="rgb(75%, 75%, 75%)" stroke-opacity="1" stroke-miterlimit="10" d="M 569.764563 0.0011875 C 569.764563 1.567594 568.495031 2.837125 566.928625 2.837125 C 565.362219 2.837125 564.092688 1.567594 564.092688 0.0011875 C 564.092688 -1.565219 565.362219 -2.83475 566.928625 -2.83475 C 568.495031 -2.83475 569.764563 -1.565219 569.764563 0.0011875 Z M 569.764563 0.0011875 " transform="matrix(1, 0, 0, -1, 7.087, 257.759)"/>
</g>
<g clip-path="url(#clip-7)">
<path fill="none" stroke-width="0.3985" stroke-linecap="butt" stroke-linejoin="miter" stroke="rgb(77.915955%, 74.803162%, 19.534302%)" stroke-opacity="1" stroke-dasharray="0.3985 1.99255" stroke-miterlimit="10" d="M 637.784094 40.911344 L 566.936438 81.833219 L 496.053625 40.911344 L 496.06925 -40.908969 L 566.920813 -81.830844 L 637.799719 -40.908969 Z M 637.784094 40.911344 " transform="matrix(1, 0, 0, -1, 7.087, 257.759)"/>
</g>
<g clip-path="url(#clip-8)">
<path fill="none" stroke-width="0.3985" stroke-linecap="butt" stroke-linejoin="miter" stroke="rgb(77.915955%, 74.803162%, 19.534302%)" stroke-opacity="1" stroke-dasharray="0.3985 1.99255" stroke-miterlimit="10" d="M 708.651281 163.653531 L 637.799719 204.575406 L 566.920813 163.653531 L 566.936438 81.833219 L 637.784094 40.911344 L 708.666906 81.833219 Z M 708.651281 163.653531 " transform="matrix(1, 0, 0, -1, 7.087, 257.759)"/>
</g>
<path fill="none" stroke-width="2.83466" stroke-linecap="butt" stroke-linejoin="miter" stroke="rgb(77.915955%, 74.803162%, 19.534302%)" stroke-opacity="1" stroke-miterlimit="10" d="M 212.592688 122.743375 L 141.737219 81.833219 L 212.588781 40.911344 Z M 212.592688 122.743375 " transform="matrix(1, 0, 0, -1, 7.087, 257.759)"/>
</svg>
