<?xml version="1.0" encoding="UTF-8"?>
<svg xmlns="http://www.w3.org/2000/svg" xmlns:xlink="http://www.w3.org/1999/xlink" width="78.052pt" height="90.809pt" viewBox="0 0 78.052 90.809" version="1.1">
<defs>
<clipPath id="clip1">
  <path d="M 1 0 L 78.050781 0 L 78.050781 90 L 1 90 Z M 1 0 "/>
</clipPath>
<clipPath id="clip2">
  <path d="M 0 0 L 78.050781 0 L 78.050781 90.808594 L 0 90.808594 Z M 0 0 "/>
</clipPath>
<clipPath id="clip3">
  <path d="M 44 34 L 78.050781 34 L 78.050781 71 L 44 71 Z M 44 34 "/>
</clipPath>
<clipPath id="clip4">
  <path d="M 24 88 L 28 88 L 28 90.808594 L 24 90.808594 Z M 24 88 "/>
</clipPath>
<clipPath id="clip5">
  <path d="M 19 82 L 33 82 L 33 90.808594 L 19 90.808594 Z M 19 82 "/>
</clipPath>
<clipPath id="clip6">
  <path d="M 49 88 L 52 88 L 52 90.808594 L 49 90.808594 Z M 49 88 "/>
</clipPath>
<clipPath id="clip7">
  <path d="M 43 82 L 58 82 L 58 90.808594 L 43 90.808594 Z M 43 82 "/>
</clipPath>
<clipPath id="clip8">
  <path d="M 0 88 L 3 88 L 3 90.808594 L 0 90.808594 Z M 0 88 "/>
</clipPath>
<clipPath id="clip9">
  <path d="M 0 82 L 9 82 L 9 90.808594 L 0 90.808594 Z M 0 82 "/>
</clipPath>
<clipPath id="clip10">
  <path d="M 73 88 L 77 88 L 77 90.808594 L 73 90.808594 Z M 73 88 "/>
</clipPath>
<clipPath id="clip11">
  <path d="M 68 82 L 78.050781 82 L 78.050781 90.808594 L 68 90.808594 Z M 68 82 "/>
</clipPath>
<clipPath id="clip12">
  <path d="M 68 58 L 78.050781 58 L 78.050781 72 L 68 72 Z M 68 58 "/>
</clipPath>
<clipPath id="clip13">
  <path d="M 68 40 L 78.050781 40 L 78.050781 54 L 68 54 Z M 68 40 "/>
</clipPath>
</defs>
<g id="surface1">
<g clip-path="url(#clip1)" clip-rule="nonzero">
<path style="fill:none;stroke-width:0.19925;stroke-linecap:butt;stroke-linejoin:miter;stroke:rgb(69.999695%,69.999695%,69.999695%);stroke-opacity:1;stroke-dasharray:2.98883,2.98883;stroke-miterlimit:10;" d="M 0.00096875 0.000375 L 76.536125 0.000375 M 0.00096875 24.54725 L 76.536125 24.54725 M 0.00096875 49.098031 L 76.536125 49.098031 M 0.00096875 73.648812 L 76.536125 73.648812 M 0.00096875 0.000375 L 0.00096875 89.293344 M 24.547844 0.000375 L 24.547844 89.293344 M 49.098625 0.000375 L 49.098625 89.293344 M 73.6455 0.000375 L 73.6455 89.293344 " transform="matrix(1,0,0,-1,1.417,89.391)"/>
</g>
<g clip-path="url(#clip2)" clip-rule="nonzero">
<path style="fill:none;stroke-width:2.83466;stroke-linecap:butt;stroke-linejoin:miter;stroke:rgb(77.915955%,74.803162%,19.534302%);stroke-opacity:1;stroke-miterlimit:10;" d="M 73.6455 0.000375 L 73.6455 42.519906 L 0.00096875 85.039437 " transform="matrix(1,0,0,-1,1.417,89.391)"/>
</g>
<path style=" stroke:none;fill-rule:nonzero;fill:rgb(50%,75%,75%);fill-opacity:1;" d="M 25.964844 40.292969 L 50.511719 32.699219 L 34.066406 28.648438 Z M 25.964844 40.292969 "/>
<path style=" stroke:none;fill-rule:nonzero;fill:rgb(87.5%,50%,62.5%);fill-opacity:1;" d="M 50.511719 32.699219 L 25.964844 18.527344 L 34.066406 28.648438 Z M 50.511719 32.699219 "/>
<path style=" stroke:none;fill-rule:nonzero;fill:rgb(75%,89.704895%,53.137207%);fill-opacity:1;" d="M 25.964844 18.527344 L 25.964844 40.292969 L 34.066406 28.648438 Z M 25.964844 18.527344 "/>
<path style=" stroke:none;fill-rule:nonzero;fill:rgb(100%,50%,50%);fill-opacity:1;" d="M 50.515625 64.84375 L 50.515625 78.097656 L 37.011719 78.097656 L 37.011719 64.84375 Z M 50.515625 64.84375 "/>
<path style=" stroke:none;fill-rule:nonzero;fill:rgb(50%,50%,100%);fill-opacity:1;" d="M 25.964844 64.84375 L 25.964844 78.097656 L 37.011719 78.097656 L 37.011719 64.84375 Z M 25.964844 64.84375 "/>
<path style=" stroke:none;fill-rule:nonzero;fill:rgb(50%,75%,50%);fill-opacity:1;" d="M 25.964844 89.390625 L 25.964844 78.097656 L 37.011719 78.097656 L 37.011719 89.390625 Z M 25.964844 89.390625 "/>
<path style=" stroke:none;fill-rule:nonzero;fill:rgb(100%,75%,50%);fill-opacity:1;" d="M 50.515625 89.390625 L 50.515625 78.097656 L 37.011719 78.097656 L 37.011719 89.390625 Z M 50.515625 89.390625 "/>
<path style="fill:none;stroke-width:0.3985;stroke-linecap:butt;stroke-linejoin:miter;stroke:rgb(0%,0%,0%);stroke-opacity:1;stroke-miterlimit:10;" d="M 0.00096875 0.000375 L 0.00096875 24.54725 L 24.547844 24.54725 L 24.547844 0.000375 Z M 0.00096875 0.000375 " transform="matrix(1,0,0,-1,1.417,89.391)"/>
<path style="fill:none;stroke-width:0.3985;stroke-linecap:butt;stroke-linejoin:miter;stroke:rgb(0%,0%,0%);stroke-opacity:1;stroke-miterlimit:10;" d="M 24.547844 0.000375 L 24.547844 24.54725 L 49.098625 24.54725 L 49.098625 0.000375 Z M 24.547844 0.000375 " transform="matrix(1,0,0,-1,1.417,89.391)"/>
<path style="fill:none;stroke-width:0.3985;stroke-linecap:butt;stroke-linejoin:miter;stroke:rgb(0%,0%,0%);stroke-opacity:1;stroke-miterlimit:10;" d="M 49.098625 0.000375 L 49.098625 24.54725 L 73.6455 24.54725 L 73.6455 0.000375 Z M 49.098625 0.000375 " transform="matrix(1,0,0,-1,1.417,89.391)"/>
<path style="fill:none;stroke-width:0.3985;stroke-linecap:butt;stroke-linejoin:miter;stroke:rgb(0%,0%,0%);stroke-opacity:1;stroke-miterlimit:10;" d="M 0.00096875 24.54725 L 0.00096875 49.098031 L 24.547844 49.098031 L 24.547844 24.54725 Z M 0.00096875 24.54725 " transform="matrix(1,0,0,-1,1.417,89.391)"/>
<path style="fill:none;stroke-width:0.3985;stroke-linecap:butt;stroke-linejoin:miter;stroke:rgb(0%,0%,0%);stroke-opacity:1;stroke-miterlimit:10;" d="M 24.547844 24.54725 L 24.547844 49.098031 L 49.098625 49.098031 L 49.098625 24.54725 Z M 24.547844 24.54725 " transform="matrix(1,0,0,-1,1.417,89.391)"/>
<g clip-path="url(#clip3)" clip-rule="nonzero">
<path style="fill:none;stroke-width:0.3985;stroke-linecap:butt;stroke-linejoin:miter;stroke:rgb(0%,0%,0%);stroke-opacity:1;stroke-miterlimit:10;" d="M 62.352531 49.098031 L 73.6455 42.519906 L 73.649406 24.54725 L 62.352531 49.098031 L 49.098625 24.54725 " transform="matrix(1,0,0,-1,1.417,89.391)"/>
</g>
<path style="fill:none;stroke-width:0.3985;stroke-linecap:butt;stroke-linejoin:miter;stroke:rgb(0%,0%,0%);stroke-opacity:1;stroke-miterlimit:10;" d="M 62.352531 49.098031 L 49.098625 49.098031 L 49.098625 56.691781 Z M 62.352531 49.098031 " transform="matrix(1,0,0,-1,1.417,89.391)"/>
<path style="fill:none;stroke-width:0.3985;stroke-linecap:butt;stroke-linejoin:miter;stroke:rgb(0%,0%,0%);stroke-opacity:1;stroke-miterlimit:10;" d="M 49.098625 56.691781 L 49.098625 49.098031 L 24.547844 49.098031 L 49.098625 56.691781 L 24.547844 70.863656 L 24.547844 49.098031 Z M 49.098625 56.691781 " transform="matrix(1,0,0,-1,1.417,89.391)"/>
<path style="fill:none;stroke-width:0.3985;stroke-linecap:butt;stroke-linejoin:miter;stroke:rgb(0%,0%,0%);stroke-opacity:1;stroke-miterlimit:10;" d="M 0.00096875 73.648812 L 0.00096875 49.098031 L 24.547844 70.863656 L 0.00096875 73.648812 L 19.637687 73.644906 L 24.547844 70.863656 " transform="matrix(1,0,0,-1,1.417,89.391)"/>
<path style="fill:none;stroke-width:0.3985;stroke-linecap:butt;stroke-linejoin:miter;stroke:rgb(0%,0%,0%);stroke-opacity:1;stroke-miterlimit:10;" d="M 19.637687 73.644906 L 0.00096875 73.648812 L 0.00096875 85.039437 Z M 19.637687 73.644906 " transform="matrix(1,0,0,-1,1.417,89.391)"/>
<path style="fill-rule:nonzero;fill:rgb(100%,100%,100%);fill-opacity:1;stroke-width:0.3985;stroke-linecap:butt;stroke-linejoin:miter;stroke:rgb(0%,0%,0%);stroke-opacity:1;stroke-miterlimit:10;" d="M 33.778312 60.742562 C 33.778312 61.367562 33.274406 61.875375 32.649406 61.875375 C 32.024406 61.875375 31.516594 61.367562 31.516594 60.742562 C 31.516594 60.117562 32.024406 59.613656 32.649406 59.613656 C 33.274406 59.613656 33.778312 60.117562 33.778312 60.742562 Z M 33.778312 60.742562 " transform="matrix(1,0,0,-1,1.417,89.391)"/>
<path style="fill-rule:nonzero;fill:rgb(100%,100%,100%);fill-opacity:1;stroke-width:0.3985;stroke-linecap:butt;stroke-linejoin:miter;stroke:rgb(0%,0%,0%);stroke-opacity:1;stroke-miterlimit:10;" d="M 36.727531 11.293344 C 36.727531 11.918344 36.219719 12.42225 35.594719 12.42225 C 34.969719 12.42225 34.461906 11.918344 34.461906 11.293344 C 34.461906 10.668344 34.969719 10.160531 35.594719 10.160531 C 36.219719 10.160531 36.727531 10.668344 36.727531 11.293344 Z M 36.727531 11.293344 " transform="matrix(1,0,0,-1,1.417,89.391)"/>
<path style="fill-rule:nonzero;fill:rgb(87.5%,50%,62.5%);fill-opacity:1;stroke-width:0.3985;stroke-linecap:butt;stroke-linejoin:miter;stroke:rgb(75%,0%,25%);stroke-opacity:1;stroke-miterlimit:10;" d="M 25.680656 49.098031 C 25.680656 49.723031 25.172844 50.230844 24.547844 50.230844 C 23.922844 50.230844 23.418937 49.723031 23.418937 49.098031 C 23.418937 48.473031 23.922844 47.965219 24.547844 47.965219 C 25.172844 47.965219 25.680656 48.473031 25.680656 49.098031 Z M 25.680656 49.098031 " transform="matrix(1,0,0,-1,1.417,89.391)"/>
<path style="fill-rule:nonzero;fill:rgb(75%,89.704895%,53.137207%);fill-opacity:1;stroke-width:0.3985;stroke-linecap:butt;stroke-linejoin:miter;stroke:rgb(50%,79.998779%,15.684509%);stroke-opacity:1;stroke-miterlimit:10;" d="M 50.227531 56.691781 C 50.227531 57.316781 49.719719 57.820687 49.094719 57.820687 C 48.469719 57.820687 47.965812 57.316781 47.965812 56.691781 C 47.965812 56.066781 48.469719 55.558969 49.094719 55.558969 C 49.719719 55.558969 50.227531 56.066781 50.227531 56.691781 Z M 50.227531 56.691781 " transform="matrix(1,0,0,-1,1.417,89.391)"/>
<path style="fill-rule:nonzero;fill:rgb(50%,75%,75%);fill-opacity:1;stroke-width:0.3985;stroke-linecap:butt;stroke-linejoin:miter;stroke:rgb(0%,50%,50%);stroke-opacity:1;stroke-miterlimit:10;" d="M 25.680656 70.863656 C 25.680656 71.488656 25.172844 71.996469 24.547844 71.996469 C 23.922844 71.996469 23.415031 71.488656 23.415031 70.863656 C 23.415031 70.238656 23.922844 69.730844 24.547844 69.730844 C 25.172844 69.730844 25.680656 70.238656 25.680656 70.863656 Z M 25.680656 70.863656 " transform="matrix(1,0,0,-1,1.417,89.391)"/>
<g clip-path="url(#clip4)" clip-rule="nonzero">
<path style=" stroke:none;fill-rule:nonzero;fill:rgb(100%,50%,50%);fill-opacity:1;" d="M 27.097656 89.390625 C 27.097656 88.765625 26.589844 88.257812 25.964844 88.257812 C 25.339844 88.257812 24.835938 88.765625 24.835938 89.390625 C 24.835938 90.015625 25.339844 90.523438 25.964844 90.523438 C 26.589844 90.523438 27.097656 90.015625 27.097656 89.390625 Z M 27.097656 89.390625 "/>
</g>
<g clip-path="url(#clip5)" clip-rule="nonzero">
<path style="fill:none;stroke-width:0.3985;stroke-linecap:butt;stroke-linejoin:miter;stroke:rgb(100%,0%,0%);stroke-opacity:1;stroke-miterlimit:10;" d="M 25.680656 0.000375 C 25.680656 0.625375 25.172844 1.133187 24.547844 1.133187 C 23.922844 1.133187 23.418937 0.625375 23.418937 0.000375 C 23.418937 -0.624625 23.922844 -1.132438 24.547844 -1.132438 C 25.172844 -1.132438 25.680656 -0.624625 25.680656 0.000375 Z M 25.680656 0.000375 " transform="matrix(1,0,0,-1,1.417,89.391)"/>
</g>
<g clip-path="url(#clip6)" clip-rule="nonzero">
<path style=" stroke:none;fill-rule:nonzero;fill:rgb(50%,50%,100%);fill-opacity:1;" d="M 51.644531 89.390625 C 51.644531 88.765625 51.140625 88.257812 50.515625 88.257812 C 49.890625 88.257812 49.382812 88.765625 49.382812 89.390625 C 49.382812 90.015625 49.890625 90.523438 50.515625 90.523438 C 51.140625 90.523438 51.644531 90.015625 51.644531 89.390625 Z M 51.644531 89.390625 "/>
</g>
<g clip-path="url(#clip7)" clip-rule="nonzero">
<path style="fill:none;stroke-width:0.3985;stroke-linecap:butt;stroke-linejoin:miter;stroke:rgb(0%,0%,100%);stroke-opacity:1;stroke-miterlimit:10;" d="M 50.227531 0.000375 C 50.227531 0.625375 49.723625 1.133187 49.098625 1.133187 C 48.473625 1.133187 47.965812 0.625375 47.965812 0.000375 C 47.965812 -0.624625 48.473625 -1.132438 49.098625 -1.132438 C 49.723625 -1.132438 50.227531 -0.624625 50.227531 0.000375 Z M 50.227531 0.000375 " transform="matrix(1,0,0,-1,1.417,89.391)"/>
</g>
<path style="fill-rule:nonzero;fill:rgb(50%,75%,50%);fill-opacity:1;stroke-width:0.3985;stroke-linecap:butt;stroke-linejoin:miter;stroke:rgb(0%,50%,0%);stroke-opacity:1;stroke-miterlimit:10;" d="M 50.227531 24.54725 C 50.227531 25.17225 49.723625 25.680062 49.098625 25.680062 C 48.473625 25.680062 47.965812 25.17225 47.965812 24.54725 C 47.965812 23.92225 48.473625 23.418344 49.098625 23.418344 C 49.723625 23.418344 50.227531 23.92225 50.227531 24.54725 Z M 50.227531 24.54725 " transform="matrix(1,0,0,-1,1.417,89.391)"/>
<path style="fill-rule:nonzero;fill:rgb(100%,75%,50%);fill-opacity:1;stroke-width:0.3985;stroke-linecap:butt;stroke-linejoin:miter;stroke:rgb(100%,50%,0%);stroke-opacity:1;stroke-miterlimit:10;" d="M 25.680656 24.54725 C 25.680656 25.17225 25.172844 25.680062 24.547844 25.680062 C 23.922844 25.680062 23.418937 25.17225 23.418937 24.54725 C 23.418937 23.92225 23.922844 23.418344 24.547844 23.418344 C 25.172844 23.418344 25.680656 23.92225 25.680656 24.54725 Z M 25.680656 24.54725 " transform="matrix(1,0,0,-1,1.417,89.391)"/>
<g clip-path="url(#clip8)" clip-rule="nonzero">
<path style=" stroke:none;fill-rule:nonzero;fill:rgb(75%,75%,75%);fill-opacity:1;" d="M 2.546875 89.390625 C 2.546875 88.765625 2.042969 88.257812 1.417969 88.257812 C 0.792969 88.257812 0.285156 88.765625 0.285156 89.390625 C 0.285156 90.015625 0.792969 90.523438 1.417969 90.523438 C 2.042969 90.523438 2.546875 90.015625 2.546875 89.390625 Z M 2.546875 89.390625 "/>
</g>
<g clip-path="url(#clip9)" clip-rule="nonzero">
<path style="fill:none;stroke-width:0.3985;stroke-linecap:butt;stroke-linejoin:miter;stroke:rgb(0%,0%,0%);stroke-opacity:1;stroke-miterlimit:10;" d="M 1.129875 0.000375 C 1.129875 0.625375 0.625969 1.133187 0.00096875 1.133187 C -0.624031 1.133187 -1.131844 0.625375 -1.131844 0.000375 C -1.131844 -0.624625 -0.624031 -1.132438 0.00096875 -1.132438 C 0.625969 -1.132438 1.129875 -0.624625 1.129875 0.000375 Z M 1.129875 0.000375 " transform="matrix(1,0,0,-1,1.417,89.391)"/>
</g>
<g clip-path="url(#clip10)" clip-rule="nonzero">
<path style=" stroke:none;fill-rule:nonzero;fill:rgb(75%,75%,75%);fill-opacity:1;" d="M 76.195312 89.390625 C 76.195312 88.765625 75.6875 88.257812 75.066406 88.257812 C 74.441406 88.257812 73.933594 88.765625 73.933594 89.390625 C 73.933594 90.015625 74.441406 90.523438 75.066406 90.523438 C 75.6875 90.523438 76.195312 90.015625 76.195312 89.390625 Z M 76.195312 89.390625 "/>
</g>
<g clip-path="url(#clip11)" clip-rule="nonzero">
<path style="fill:none;stroke-width:0.3985;stroke-linecap:butt;stroke-linejoin:miter;stroke:rgb(0%,0%,0%);stroke-opacity:1;stroke-miterlimit:10;" d="M 74.778312 0.000375 C 74.778312 0.625375 74.2705 1.133187 73.649406 1.133187 C 73.024406 1.133187 72.516594 0.625375 72.516594 0.000375 C 72.516594 -0.624625 73.024406 -1.132438 73.649406 -1.132438 C 74.2705 -1.132438 74.778312 -0.624625 74.778312 0.000375 Z M 74.778312 0.000375 " transform="matrix(1,0,0,-1,1.417,89.391)"/>
</g>
<path style=" stroke:none;fill-rule:nonzero;fill:rgb(75%,75%,75%);fill-opacity:1;" d="M 76.195312 64.84375 C 76.195312 64.21875 75.6875 63.710938 75.066406 63.710938 C 74.441406 63.710938 73.933594 64.21875 73.933594 64.84375 C 73.933594 65.464844 74.441406 65.972656 75.066406 65.972656 C 75.6875 65.972656 76.195312 65.464844 76.195312 64.84375 Z M 76.195312 64.84375 "/>
<g clip-path="url(#clip12)" clip-rule="nonzero">
<path style="fill:none;stroke-width:0.3985;stroke-linecap:butt;stroke-linejoin:miter;stroke:rgb(0%,0%,0%);stroke-opacity:1;stroke-miterlimit:10;" d="M 74.778312 24.54725 C 74.778312 25.17225 74.2705 25.680062 73.649406 25.680062 C 73.024406 25.680062 72.516594 25.17225 72.516594 24.54725 C 72.516594 23.926156 73.024406 23.418344 73.649406 23.418344 C 74.2705 23.418344 74.778312 23.926156 74.778312 24.54725 Z M 74.778312 24.54725 " transform="matrix(1,0,0,-1,1.417,89.391)"/>
</g>
<path style="fill-rule:nonzero;fill:rgb(75%,75%,75%);fill-opacity:1;stroke-width:0.3985;stroke-linecap:butt;stroke-linejoin:miter;stroke:rgb(0%,0%,0%);stroke-opacity:1;stroke-miterlimit:10;" d="M 1.129875 24.54725 C 1.129875 25.17225 0.625969 25.680062 0.00096875 25.680062 C -0.624031 25.680062 -1.131844 25.17225 -1.131844 24.54725 C -1.131844 23.926156 -0.624031 23.418344 0.00096875 23.418344 C 0.625969 23.418344 1.129875 23.926156 1.129875 24.54725 Z M 1.129875 24.54725 " transform="matrix(1,0,0,-1,1.417,89.391)"/>
<path style="fill-rule:nonzero;fill:rgb(75%,75%,75%);fill-opacity:1;stroke-width:0.3985;stroke-linecap:butt;stroke-linejoin:miter;stroke:rgb(0%,0%,0%);stroke-opacity:1;stroke-miterlimit:10;" d="M 1.129875 49.098031 C 1.129875 49.723031 0.625969 50.230844 0.00096875 50.230844 C -0.624031 50.230844 -1.131844 49.723031 -1.131844 49.098031 C -1.131844 48.473031 -0.624031 47.965219 0.00096875 47.965219 C 0.625969 47.965219 1.129875 48.473031 1.129875 49.098031 Z M 1.129875 49.098031 " transform="matrix(1,0,0,-1,1.417,89.391)"/>
<path style="fill-rule:nonzero;fill:rgb(75%,75%,75%);fill-opacity:1;stroke-width:0.3985;stroke-linecap:butt;stroke-linejoin:miter;stroke:rgb(0%,0%,0%);stroke-opacity:1;stroke-miterlimit:10;" d="M 50.231437 49.098031 C 50.231437 49.723031 49.723625 50.230844 49.098625 50.230844 C 48.473625 50.230844 47.965812 49.723031 47.965812 49.098031 C 47.965812 48.473031 48.473625 47.965219 49.098625 47.965219 C 49.723625 47.965219 50.231437 48.473031 50.231437 49.098031 Z M 50.231437 49.098031 " transform="matrix(1,0,0,-1,1.417,89.391)"/>
<path style="fill-rule:nonzero;fill:rgb(75%,75%,75%);fill-opacity:1;stroke-width:0.3985;stroke-linecap:butt;stroke-linejoin:miter;stroke:rgb(0%,0%,0%);stroke-opacity:1;stroke-miterlimit:10;" d="M 1.129875 73.648812 C 1.129875 74.273812 0.625969 74.777719 0.00096875 74.777719 C -0.624031 74.777719 -1.131844 74.273812 -1.131844 73.648812 C -1.131844 73.023812 -0.624031 72.516 0.00096875 72.516 C 0.625969 72.516 1.129875 73.023812 1.129875 73.648812 Z M 1.129875 73.648812 " transform="matrix(1,0,0,-1,1.417,89.391)"/>
<path style=" stroke:none;fill-rule:nonzero;fill:rgb(75%,75%,75%);fill-opacity:1;" d="M 76.195312 46.871094 C 76.195312 46.246094 75.6875 45.742188 75.0625 45.742188 C 74.4375 45.742188 73.929688 46.246094 73.929688 46.871094 C 73.929688 47.496094 74.4375 48.003906 75.0625 48.003906 C 75.6875 48.003906 76.195312 47.496094 76.195312 46.871094 Z M 76.195312 46.871094 "/>
<g clip-path="url(#clip13)" clip-rule="nonzero">
<path style="fill:none;stroke-width:0.3985;stroke-linecap:butt;stroke-linejoin:miter;stroke:rgb(0%,0%,0%);stroke-opacity:1;stroke-miterlimit:10;" d="M 74.778312 42.519906 C 74.778312 43.144906 74.2705 43.648812 73.6455 43.648812 C 73.0205 43.648812 72.512687 43.144906 72.512687 42.519906 C 72.512687 41.894906 73.0205 41.387094 73.6455 41.387094 C 74.2705 41.387094 74.778312 41.894906 74.778312 42.519906 Z M 74.778312 42.519906 " transform="matrix(1,0,0,-1,1.417,89.391)"/>
</g>
<path style="fill-rule:nonzero;fill:rgb(75%,75%,75%);fill-opacity:1;stroke-width:0.3985;stroke-linecap:butt;stroke-linejoin:miter;stroke:rgb(0%,0%,0%);stroke-opacity:1;stroke-miterlimit:10;" d="M 63.485344 49.098031 C 63.485344 49.723031 62.977531 50.230844 62.352531 50.230844 C 61.727531 50.230844 61.223625 49.723031 61.223625 49.098031 C 61.223625 48.473031 61.727531 47.965219 62.352531 47.965219 C 62.977531 47.965219 63.485344 48.473031 63.485344 49.098031 Z M 63.485344 49.098031 " transform="matrix(1,0,0,-1,1.417,89.391)"/>
<path style="fill-rule:nonzero;fill:rgb(75%,75%,75%);fill-opacity:1;stroke-width:0.3985;stroke-linecap:butt;stroke-linejoin:miter;stroke:rgb(0%,0%,0%);stroke-opacity:1;stroke-miterlimit:10;" d="M 20.7705 73.644906 C 20.7705 74.269906 20.262687 74.777719 19.637687 74.777719 C 19.012687 74.777719 18.508781 74.269906 18.508781 73.644906 C 18.508781 73.019906 19.012687 72.516 19.637687 72.516 C 20.262687 72.516 20.7705 73.019906 20.7705 73.644906 Z M 20.7705 73.644906 " transform="matrix(1,0,0,-1,1.417,89.391)"/>
<path style="fill-rule:nonzero;fill:rgb(75%,75%,75%);fill-opacity:1;stroke-width:0.3985;stroke-linecap:butt;stroke-linejoin:miter;stroke:rgb(0%,0%,0%);stroke-opacity:1;stroke-miterlimit:10;" d="M 1.129875 85.039437 C 1.129875 85.664437 0.625969 86.168344 0.00096875 86.168344 C -0.624031 86.168344 -1.131844 85.664437 -1.131844 85.039437 C -1.131844 84.414437 -0.624031 83.906625 0.00096875 83.906625 C 0.625969 83.906625 1.129875 84.414437 1.129875 85.039437 Z M 1.129875 85.039437 " transform="matrix(1,0,0,-1,1.417,89.391)"/>
</g>
</svg>
